<svg xmlns="http://www.w3.org/2000/svg" width="82.267" height="82.269" viewBox="0 0 82.267 82.269"><path d="M41.133 0C18.416 0 0 18.417 0 41.134 0 63.852 18.417 82.27 41.133 82.27c22.72 0 41.135-18.418 41.135-41.136C82.268 18.417 63.852 0 41.133 0m0 78.348c-20.518 0-37.21-16.695-37.21-37.214 0-20.52 16.692-37.213 37.21-37.213 20.52 0 37.214 16.694 37.214 37.214-.002 20.518-16.695 37.214-37.214 37.214"/><path stroke="#000" stroke-width="4" stroke-linecap="round" stroke-miterlimit="10" fill="none" d="M25.09 49.155l16.043-16.042 16.043 16.042"/></svg>