<svg xmlns="http://www.w3.org/2000/svg" xmlns:xlink="http://www.w3.org/1999/xlink" width="301.338" height="253.458" viewBox="0 0 301.338 253.458"><defs><path id="a" d="M0 0h301.338v253.458H0z"/></defs><clipPath id="b"><use xlink:href="#a" overflow="visible"/></clipPath><path clip-path="url(#b)" fill="#438944" d="M150.59 245.958c-2.605 0-5.147-1.325-7.157-3.732-11.177-13.396-26.332-19.974-46.33-20.11-.796-.006-1.592-.01-2.388-.01-24.41 0-48.837 2.625-72.602 7.8-1.316.285-2.592.432-3.795.432-6.743 0-10.774-4.562-10.78-12.2-.048-54.64-.05-113.22-.008-189.94.004-6.88 2.81-10.424 9.384-11.85C44.747 10.31 68.054 7.5 90.26 7.5c4.452 0 8.907.12 13.24.354 18.346.995 32.03 6.407 43.065 17.03l3.833 3.69 3.926-3.59c12.828-11.74 28.687-17.1 51.423-17.383 1.196-.014 2.394-.022 3.587-.022 22.77 0 46.613 2.665 72.894 8.145 8.865 1.85 11.575 5.19 11.597 14.306.02 8.84.014 17.68.01 26.522l-.004 11.453.003 29.158c.006 38.77.01 78.86-.072 118.288-.007 3.41-.465 6.452-1.323 8.795-1.833 5-6.273 6.05-9.677 6.05-1.282 0-2.644-.154-4.044-.457-23.668-5.135-48.215-7.738-72.962-7.74-21.285 0-36.636 6.465-48.316 20.346-1.91 2.266-4.34 3.514-6.848 3.514m-56.528-35.093c16.996 0 29.838 3.428 41.64 11.113l8.762 5.706v-16.93c0-13.983-.01-27.97-.017-41.95-.024-37.667-.05-76.614.11-114.914.062-15.02-6.915-25.412-20.176-30.056-9.11-3.19-18.56-5.076-27.326-5.45-2.554-.11-5.182-.164-7.812-.164-19.375 0-38.112 2.814-60.285 7.038-9.06 1.727-9.05 9.37-9.046 11.883.06 39.965.063 80.6.067 119.895.002 16.494.003 32.986.01 49.48 0 1.525.14 2.94.243 3.975.028.286.054.536.068.735l.42 5.77 5.76-.537c5.583-.52 11.098-1.045 16.564-1.566 12.407-1.18 24.125-2.297 36.068-3.312 5.737-.487 10.488-.715 14.952-.715m118.54-192.642c-2.928 0-5.848.07-8.68.208-9.137.446-18.957 2.616-29.185 6.45-11.59 4.343-17.945 14.194-17.896 27.737.14 38.996.12 78.653.1 117.003-.006 13.793-.014 27.586-.014 41.378v16.575l8.772-5.735c11.62-7.6 24.396-10.987 41.424-10.987 4.04 0 8.506.192 13.653.585 12.14.928 24.1 2.105 36.763 3.35 5.626.556 11.318 1.115 17.106 1.66l6.2.584V98.834l-.006-15.76c-.01-15.14-.016-30.79.045-46.18.03-6.592-2.94-10.513-8.822-11.65-18.854-3.647-39.106-7.022-59.458-7.022"/><path clip-path="url(#b)" stroke="#438944" stroke-width="15" stroke-miterlimit="10" d="M150.59 245.958c-2.605 0-5.147-1.325-7.157-3.732-11.177-13.396-26.332-19.974-46.33-20.11-.796-.006-1.592-.01-2.388-.01-24.41 0-48.837 2.625-72.602 7.8-1.316.285-2.592.432-3.795.432-6.743 0-10.774-4.562-10.78-12.2-.048-54.64-.05-113.22-.008-189.94.004-6.88 2.81-10.424 9.384-11.85C44.747 10.31 68.054 7.5 90.26 7.5c4.452 0 8.907.12 13.24.354 18.346.995 32.03 6.407 43.065 17.03l3.833 3.69 3.926-3.59c12.828-11.74 28.687-17.1 51.423-17.383 1.196-.014 2.394-.022 3.587-.022 22.77 0 46.613 2.665 72.894 8.145 8.865 1.85 11.575 5.19 11.597 14.306.02 8.84.014 17.68.01 26.522l-.004 11.453.003 29.158c.006 38.77.01 78.86-.072 118.288-.007 3.41-.465 6.452-1.323 8.795-1.833 5-6.273 6.05-9.677 6.05-1.282 0-2.644-.154-4.044-.457-23.668-5.135-48.215-7.738-72.962-7.74-21.285 0-36.636 6.465-48.316 20.346-1.91 2.266-4.34 3.514-6.848 3.514zm-56.528-35.093c16.996 0 29.838 3.428 41.64 11.113l8.762 5.706v-16.93c0-13.983-.01-27.97-.017-41.95-.024-37.667-.05-76.614.11-114.914.062-15.02-6.915-25.412-20.176-30.056-9.11-3.19-18.56-5.076-27.326-5.45-2.554-.11-5.182-.164-7.812-.164-19.375 0-38.112 2.814-60.285 7.038-9.06 1.727-9.05 9.37-9.046 11.883.06 39.965.063 80.6.067 119.895.002 16.494.003 32.986.01 49.48 0 1.525.14 2.94.243 3.975.028.286.054.536.068.735l.42 5.77 5.76-.537c5.583-.52 11.098-1.045 16.564-1.566 12.407-1.18 24.125-2.297 36.068-3.312 5.737-.487 10.488-.715 14.952-.715zm118.54-192.642c-2.928 0-5.848.07-8.68.208-9.137.446-18.957 2.616-29.185 6.45-11.59 4.343-17.945 14.194-17.896 27.737.14 38.996.12 78.653.1 117.003-.006 13.793-.014 27.586-.014 41.378v16.575l8.772-5.735c11.62-7.6 24.396-10.987 41.424-10.987 4.04 0 8.506.192 13.653.585 12.14.928 24.1 2.105 36.763 3.35 5.626.556 11.318 1.115 17.106 1.66l6.2.584V98.834l-.006-15.76c-.01-15.14-.016-30.79.045-46.18.03-6.592-2.94-10.513-8.822-11.65-18.854-3.647-39.106-7.022-59.458-7.022z" fill="none"/></svg>