<svg xmlns="http://www.w3.org/2000/svg" xmlns:xlink="http://www.w3.org/1999/xlink" width="143.5" height="138.5" viewBox="0 0 143.5 138.5"><defs><path id="a" d="M0 0h143.5v138.5H0z"/></defs><clipPath id="b"><use xlink:href="#a" overflow="visible"/></clipPath><path clip-path="url(#b)" fill="#438944" d="M137.195 45.61C127.915 19.086 102.652 0 73 0 43.55 0 18.42 18.824 8.99 45.07 4 45.337 0 49.49 0 54.542V88.01c0 5.227 4.275 9.5 9.5 9.5s9.5-4.273 9.5-9.5V68c0-29.776 24.225-54 54-54 24.394 0 45.05 16.263 51.726 38.513-.145.655-.226 1.333-.226 2.03V84.24c-5.683 17.98-20.54 31.908-39.05 36.295-1.29-.656-2.74-1.035-4.28-1.035H64.83c-5.225 0-9.5 4.275-9.5 9.5s4.275 9.5 9.5 9.5h16.34c3.377 0 6.35-1.792 8.035-4.467 19.865-4.876 36.334-18.492 45.057-36.536 5.104-.14 9.238-4.35 9.238-9.486V54.544c0-4.104-2.642-7.61-6.305-8.932z"/></svg>