<svg xmlns="http://www.w3.org/2000/svg" width="62.978" height="55.845" viewBox="0 0 62.978 55.845"><path fill="#3A8B41" d="M45.212 6c6.487 0 11.765 5.278 11.765 11.765 0 2.704-.886 5.233-2.566 7.334L31.49 47.46 8.567 25.1C6.888 22.997 6 20.47 6 17.764 6 11.278 11.278 6 17.766 6c3.53 0 6.843 1.566 9.09 4.296l4.633 5.628 4.63-5.628C38.37 7.566 41.683 6 45.213 6m0-6C39.685 0 34.747 2.524 31.49 6.483 28.23 2.523 23.292 0 17.765 0 7.954 0 0 7.954 0 17.765c0 4.338 1.557 8.31 4.14 11.396l27.35 26.685L58.837 29.16c2.583-3.084 4.14-7.057 4.14-11.395C62.977 7.955 55.022 0 45.21 0"/></svg>