<svg xmlns="http://www.w3.org/2000/svg" xmlns:xlink="http://www.w3.org/1999/xlink" width="61.78" height="61.78" viewBox="0 0 61.78 61.78"><defs><path id="a" d="M0 0h61.78v61.78H0z"/></defs><clipPath id="b"><use xlink:href="#a" overflow="visible"/></clipPath><path clip-path="url(#b)" fill="#156737" d="M53.896 0c2.195 0 4.06.765 5.59 2.295 1.53 1.53 2.295 3.394 2.295 5.59V53.78c0 2.275-.764 4.177-2.294 5.706-1.53 1.53-3.395 2.295-5.59 2.295H8.002c-2.277 0-4.178-.764-5.708-2.294C.764 57.956 0 56.056 0 53.778V7.885c0-2.196.764-4.06 2.294-5.59C3.824.765 5.724 0 8.002 0h45.894zm.94 26.125h-5.53c.393.864.628 1.706.706 2.53.078.823.118 1.746.118 2.765 0 2.59-.49 5.02-1.47 7.296-.983 2.275-2.336 4.235-4.06 5.884-1.728 1.646-3.767 2.962-6.12 3.942-2.354.98-4.865 1.47-7.53 1.47-2.67 0-5.16-.488-7.474-1.47-2.315-.98-4.335-2.296-6.06-3.942-1.727-1.648-3.1-3.608-4.12-5.884-1.02-2.275-1.528-4.707-1.528-7.296 0-2.04.312-3.804.94-5.295H6.826V52.13c0 .707.254 1.296.765 1.766.51.47 1.118.706 1.824.706h42.952c.627 0 1.195-.235 1.706-.706.51-.47.765-1.06.765-1.765V26.126zM30.95 18.71c-3.454 0-6.376 1.158-8.768 3.47-2.394 2.316-3.59 5.2-3.59 8.65 0 1.648.313 3.178.942 4.59.627 1.412 1.51 2.668 2.648 3.766 1.136 1.1 2.45 1.962 3.942 2.59 1.49.628 3.098.94 4.825.94 1.723 0 3.352-.312 4.882-.94 1.53-.628 2.843-1.49 3.942-2.59 1.098-1.098 1.98-2.354 2.648-3.766.665-1.412 1-2.942 1-4.59 0-1.724-.335-3.313-1-4.765-.67-1.45-1.55-2.725-2.648-3.825-1.1-1.097-2.412-1.96-3.942-2.59-1.53-.626-3.16-.94-4.883-.94M44.95 6.708c-.628 0-1.235.294-1.824.882-.588.59-.882 1.236-.882 1.942v6.825c0 .63.294 1.236.882 1.824.59.59 1.196.884 1.824.884h7.062c.782 0 1.45-.294 2-.883.55-.587.823-1.194.823-1.823V9.532c0-.706-.274-1.353-.822-1.942-.55-.588-1.22-.882-2-.882H44.95z"/></svg>