<svg xmlns="http://www.w3.org/2000/svg" xmlns:xlink="http://www.w3.org/1999/xlink" width="137.743" height="106.188" viewBox="0 0 137.743 106.188"><defs><path id="a" d="M0 0h137.743v106.188H0z"/></defs><clipPath id="b"><use xlink:href="#a" overflow="visible"/></clipPath><path clip-path="url(#b)" fill="#438944" d="M69.652 56.832c2.6-4.58 5.387-9.065 7.715-13.777 1.09-2.204 2.277-3.275 4.706-2.974.977.12 1.98.018 2.97.02 10.497.023 16.98 5.856 17.19 16.31.292 14.5.07 29.008.09 43.513.002 2.398-1.162 3.602-3.51 3.954-18.814 2.83-37.63 3.166-56.502.436-7.294-1.056-6.582-.724-6.59-7.815-.014-13.426-.022-26.85.004-40.273.018-9.58 6.27-15.598 15.817-16.233 5.4-.36 8.653.988 10.598 6.368 1.34 3.707 4.048 6.92 6.145 10.353.456.038.912.08 1.37.12M.037 73.13c0-5.045-.01-10.09.002-15.134.018-7.494 5.103-12.76 12.59-12.972 3.06-.087 6.13.108 9.185-.058 2.747-.148 4.333 1.142 4.924 3.605.942 3.934 2.053 7.883 2.424 11.887.98 10.568 1.662 21.165 2.33 31.76.227 3.604-.123 3.993-3.803 3.668-8.143-.722-16.263-1.722-24.397-2.568C.835 93.06-.05 91.78.003 89.345c.114-5.402.035-10.81.034-16.214M137.63 73.132c-.003 5.583-.05 11.166.022 16.748.025 1.954-.67 3.107-2.666 3.32-8.574.918-17.15 1.836-25.725 2.74-2.362.25-3.31-.91-3.1-3.195 1.246-13.424 2.48-26.847 3.746-40.268.075-.798.345-1.583.578-2.357 1.394-4.64 2.028-5.115 6.8-5.118 2.52-.002 5.042.02 7.562 0 7.57-.058 13.395 6.327 12.86 13.008-.395 5.01-.075 10.08-.077 15.122M50.35 18.45C50.366 7.947 58.323.004 68.835 0c10.633-.004 18.55 7.988 18.514 18.688-.035 10.42-8.093 18.35-18.61 18.314-10.46-.034-18.4-8.045-18.387-18.552M13.026 25.303c.003-8.526 6.996-15.472 15.526-15.42 8.184.048 15.432 7.412 15.284 15.526-.158 8.636-7.028 15.362-15.647 15.316-8.437-.046-15.167-6.89-15.164-15.423M124.676 25.312c.006 8.736-6.7 15.453-15.393 15.414-8.3-.036-15.294-6.997-15.42-15.348-.126-8.168 7.324-15.563 15.62-15.506 8.432.058 15.188 6.924 15.193 15.44"/></svg>