<svg xmlns="http://www.w3.org/2000/svg" xmlns:xlink="http://www.w3.org/1999/xlink" width="316.908" height="316.908" viewBox="0 0 316.908 316.908"><defs><path id="a" d="M0 0h316.908v316.908H0z"/></defs><clipPath id="b"><use xlink:href="#a" overflow="visible"/></clipPath><path clip-path="url(#b)" fill="#3A8A3A" d="M161.187 149.207c-8.615-4.757-20.107-6.976-31.123-6.728-5.006.112-8.54-.273-10.603-.298-3.55.08 4.204-7.613 10.59-8.534 19.532-2.783 39.044-14.185 38.644-31.928-.372-16.487-17.703-23.035-39.536-22.543-3.102.07-4.155.842-4.36 2.512-.46 3.86-6.39 36.883-8.97 51.966 0 0-1.646 7.8-2.35 12.146-4.213 23.97-8.538 40.66-23.878 57.352-1.42 1.56-.703 2.655 1.46 3.455 3.782 1.248 15.966 1.836 26.088 1.853 1.496-14.9 9.686-31.032 23.646-44.63 5.565-5.288 12.518-10.254 20.393-14.626M139.766 178.78c-5.513 8.976-8.108 16.44-7.933 22.824l.01.594c.033 1.762.076 3.788.295 5.97 3.198-.123 6.23-.323 8.958-.71 24.548-3.743 33.437-17.59 33.962-36.9.14-5.444-1.627-10.08-4.718-13.927-9.915 3.372-23.036 9.918-30.574 22.15M158.454 0C70.942 0 0 70.943 0 158.454c0 87.512 70.942 158.454 158.454 158.454 87.512 0 158.454-70.942 158.454-158.454C316.908 70.944 245.966 0 158.454 0m149.92 169.32c-3.092 8.09-7.48 17.36-13.412 28.345-9.152 17.183-24.092 39.32-35.013 54.862-1.67 2.354-3.25 4.875-4.778 7.312-1.66 2.647-3.376 5.383-5.16 7.823-1.058 1.457-2.055 2.84-3.013 4.17-2.227 3.09-4.327 6.007-6.514 8.856-1.145 1.498-2.343 3.01-3.514 4.487-1.918 2.423-3.73 4.71-5.11 6.693-.72.93-1.775 1.42-2.95 1.42-1.963 0-3.512-1.316-3.682-3.13-.087-.85-.063-2.866-.015-6.355.044-3.027.097-6.796.03-9.865-.007-.302-.995-32.16-4.434-60.114-1.633-13.54-4.536-26.62-5.932-32.907l-.26-1.175c-3.99-18.738-10.38-27.46-13.44-27.46-.7 0-1.416-.008-2.153-.016-.77-.008-1.568-.016-2.396-.016-1.86 0-3.86.046-6.095.21 1.97 3.982 2.964 8.64 3.086 14.08.58 25.668-33.01 45.627-58.97 51.53 1.148 2.577 2.77 5.182 5.094 7.7 4.674 5.056 11.19 7.62 19.366 7.62 1.818 0 3.336-.13 4.34-.217.582-.05 1.02-.083 1.28-.083.942 0 2.03.658 2.584 1.564.513.833.555 1.8.12 2.654-.784 1.41-2.564 2.98-4.48 4.607l-.46.392c-1.51 1.293-4.843 4.148-10.054 5.125-1.265.234-2.62.354-4.03.354-10.093 0-21.372-5.818-25.678-13.247-2.808-4.432-4.568-9.383-5.358-14.645l-47.337.572-.3-.108c-.89-.32-1.514-1.004-1.712-1.875-.403-1.76 1.044-3.47 1.684-4.123l.095-.09c.594-.524 1.08-.893 1.695-1.357.518-.392 1.155-.874 2.08-1.62 1.84-1.63 5.628-5.656 9.6-13.686 3.813-7.578 7.25-17.588 9.432-27.475 2.654-11.915 5.165-25.938 7.38-38.31.672-3.746 1.318-7.358 1.94-10.744 1.21-7.198 2.398-13.685 3.447-19.41 1.685-9.19 3.017-16.45 2.96-19.007-.006-.236-.022-.953-.106-1.13-.113-.064-.832-.35-4.038-.35-.593 0-1.247.01-1.97.025-33.996.766-58.92 8.102-72.078 21.214-4.136 4.164-9.022 13.03-10.267 15.856-1.16 2.948-3.76 17.06-1.1 27.813 1.203 4.99 5.506 11.885 11.408 15.43 5.92 3.535 11.622 4.277 15.364 4.277 3.565 0 5.727-.642 5.748-.648l.24-.078.51-.01c2.86 0 3.49 1.204 3.513 2.215.03 1.312-1.033 2.45-1.773 3.077-2.9 3.577-10.682 9.435-22.137 9.435-2.503 0-5.063-.293-7.61-.868-8.596-2.014-21.626-12.964-22.34-34.89-.45-13.72 6.612-29.32 19.37-42.803 20.483-21.646 52.174-34.51 86.945-35.292 1.54-.035 2.49-.056 4.027-.928 1.09-.682 2.99-5.74 5.394-12.142l1.23-3.27c3.28-8.47 9.772-17.34 14.755-22.824 10.63-11.572 22.546-17.98 29.524-19.95 4.516-1.315 9.577-2.04 14.237-2.04 7.485 0 17.737 1.815 24.075 10.464 7.04 9.542 6.113 13 3.747 17.56l-.325.63c-1.257 2.426-7.562 8.623-10.975 8.624-.932 0-1.72-.387-2.232-1.09-.398-.52-.527-1.19-.703-2.097-.104-.53-.222-1.13-.38-1.607l-.16-.545c-.66-2.24-1.408-4.776-2.892-7.58-2.105-3.99-8.017-8.284-11.377-9.002l-.123-.028c-2.943-.725-5.934-1.092-8.884-1.092-5.95 0-11.233 1.46-15.71 4.344l-.523.35c-3.062 2.05-6.874 4.602-10.172 9.767-3.67 5.623-10.09 22.867-9.72 29.313.05.637.586 1.35.89 1.595l.372.016c16.728.72 27.43 3.555 33.464 5.808 13.92 5.26 20.344 16.356 20.54 25.022.36 16.02-9.642 28.832-29.73 38.076-.162.134-.33.3-.457.45.045.02.095.04.152.063 9.684 1.593 17.27 3.893 23.02 7.11.586-.224 1.17-.45 1.762-.666 13.477-4.964 27.518-7.562 34.422-7.562 2.588 0 4.872 1.35 5.124 1.504.878.542 3.518 2.178 7.715 17.216 4.18 13.988 7.896 32.372 7.935 32.556l.586 3.494c1.523 9.057 4.072 24.215 5.802 38 .522 4.523.934 9.005 1.295 12.957.556 6.057 1.036 11.286 1.595 13.008.545 1.875 1.16 2.535 1.443 2.535.45 0 1.283-.65 1.75-1.237 6.814-9.382 12.213-17.277 17.462-25.543 21.144-33.188 25.582-55.36 25.582-68.118 0-7.15-2.978-10.96-4.853-11.683-2.038-.782-2.577-2.96-2.577-4 0-3.857 14.37-10.628 20.7-11.253.73-.054 1.472-.1 2.225-.1 2 0 4.85.297 6.544 2.877 1.754 2.603 2.082 6.752 1.023 13.04-.302 2.497-2.462 11.427-6.248 21.363"/></svg>