<svg xmlns="http://www.w3.org/2000/svg" xmlns:xlink="http://www.w3.org/1999/xlink" width="388.285" height="97.496" viewBox="0 0 388.285 97.496"><text transform="translate(185.501 91.464)" fill="#408522" font-family="'CronosPro-Regular'" font-size="22.341">N</text><text transform="translate(200.513 91.464)" fill="#408522" font-family="'CronosPro-Regular'" font-size="22.341">A</text><text transform="translate(213.115 91.464)" fill="#408522" font-family="'CronosPro-Regular'" font-size="22.341">T</text><text transform="translate(225.333 91.464)" fill="#408522" font-family="'CronosPro-Regular'" font-size="22.341">U</text><text transform="translate(240.257 91.464)" fill="#408522" font-family="'CronosPro-Regular'" font-size="22.341">R</text><text transform="translate(252.925 91.464)" fill="#408522" font-family="'CronosPro-Regular'" font-size="22.341">A</text><text transform="translate(277.031 91.464)" fill="#408522" font-family="'CronosPro-Regular'" font-size="22.341">I</text><text transform="translate(282.371 91.464)" fill="#408522" font-family="'CronosPro-Regular'" font-size="22.341">T</text><text transform="translate(292.982 91.464)" fill="#408522" font-family="'CronosPro-Regular'" font-size="22.341">A</text><text transform="translate(307.056 91.464)" fill="#408522" font-family="'CronosPro-Regular'" font-size="22.341">L</text><text transform="translate(316.863 91.464)" fill="#408522" font-family="'CronosPro-Regular'" font-size="22.341">I</text><text transform="translate(322.404 91.464)" fill="#408522" font-family="'CronosPro-Regular'" font-size="22.341">A</text><text transform="translate(336.502 91.464)" fill="#408522" font-family="'CronosPro-Regular'" font-size="22.341">N</text><text transform="translate(351.513 91.464)" fill="#408522" font-family="'CronosPro-Regular'" font-size="22.341">A</text><defs><path id="a" d="M65.31 54.884c0-11.33 5.572-18.634 9.982-18.634 3.158 0 4.648 3.513 4.648 8.79 0 4.413-.985 9.104-2.666 12.52-1.773 3.458-4.602 5.58-7.086 5.58-2.794 0-4.878-2.266-4.878-8.256m13.543-21.438c-2.38.15-4.34.03-8.907 3.63-5.685 4.552-9.654 13.408-9.566 20.69.047 6.19 3.11 9.08 6.112 9.08 3.638 0 7.167-2.378 11.344-6.504 2.49-2.428 4.69-6.4 5.964-10.386.843-2.755 1.12-5.79 1.12-7.978 0-6.082-3.444-8.543-5.83-8.543-.08.002-.16.003-.237.01"/></defs><clipPath id="b"><use xlink:href="#a" overflow="visible"/></clipPath><linearGradient id="c" gradientUnits="userSpaceOnUse" x1="160.917" y1="-6.868" x2="161.917" y2="-6.868" gradientTransform="matrix(0 30.753 -30.753 0 -138.619 -4910.786)"><stop offset="0" stop-color="#589620"/><stop offset=".515" stop-color="#589620"/><stop offset=".81" stop-color="#3D6E1A"/><stop offset=".92" stop-color="#3B6B19"/><stop offset="1" stop-color="#3D6E1A"/></linearGradient><path clip-path="url(#b)" fill="url(#c)" d="M60.292 33.437h24.63v33.41H60.29z"/><defs><path id="d" d="M274.962 46.8c-.3-.6.55-2.486 1.99-4.98 1.07-1.79 2.48-4.026 4.854-3.864 1.746.138 2.173 2.196 2.093 3.052-.216 2.035-.862 3.392-2.513 4.507-1.568 1.065-3.79 1.702-5.18 1.702-.633 0-1.096-.134-1.245-.416m5.07-10.41c-3.776 2.44-7.104 6.575-8.58 9.145-1.72 2.765-3.94 8.324-3.61 14.833.252 4.86 3.796 8.043 6.906 7.68 3.233-.375 6.285-3.356 7.676-5.24.53-.77.566-1.145.53-1.306-.066-.56-.272-.822-1.14.184-.882 1.04-2.502 2.494-4.654 2.418-2.34-.117-4.644-2.635-4.644-6.69 0-1.34.228-3.876.883-5.29.5-1.114 4.76-1.957 9.82-5.974 1.205-.933 5.644-4.96 5.644-7.48 0-2.585-.228-4.138-3.702-4.138-1.646-.002-3.534.87-5.13 1.858"/></defs><clipPath id="e"><use xlink:href="#d" overflow="visible"/></clipPath><linearGradient id="f" gradientUnits="userSpaceOnUse" x1="160.917" y1="-6.868" x2="161.917" y2="-6.868" gradientTransform="matrix(0 30.753 -30.753 0 66.952 -4910.71)"><stop offset="0" stop-color="#589620"/><stop offset=".515" stop-color="#589620"/><stop offset=".81" stop-color="#3D6E1A"/><stop offset=".92" stop-color="#3B6B19"/><stop offset="1" stop-color="#3D6E1A"/></linearGradient><path clip-path="url(#e)" fill="url(#f)" d="M267.51 34.53h21.355v33.88H267.51z"/><defs><path id="g" d="M152.82 59.305c-.128-1.307-.047-2.652.225-5.445.308-3.053 2.78-12.53 6.077-14.61 1.535-1.124 5.436-1.185 7.773-.862 1.044.16 1.34 1.314 1.3 2.05-.12.985-1.363 6.492-3.817 11.267-2.19 4.243-5.51 7.7-5.938 8.185-.964.985-2.027 1.903-2.937 2.396-.243.108-.468.16-.675.16h-.002c-1.224-.003-1.83-1.755-2.005-3.14m10.425-24.08c-3.346.36-6.943 3.06-8.6 5.278-4.733 5.877-6.914 11.16-7.307 18.89-.2 4.35 1.136 7.546 3.445 7.67 2.636.114 4.83-2.64 5.545-3.352.89-.71 5.026-5.23 7.078-7.177.574-.56.9.162.9.162-.364 4.568-1.294 8.844-2.205 12.892-2.094 9.477-7.516 18.364-16.726 17.928-3.8-.176-5.36-2.886-5.26-6.78.103-3.675 2.875-8.42 3.088-8.77.232-.322.11-1.684-3.82 2.387-3.962 4.045-4.302 9.146-4.302 9.146-.19 4.134 2.506 6.928 6.283 7.09 7.395.354 22.725-7.646 26.022-24.106 1.462-7.195 2.763-13.746 4.106-18.813 2.003-7.475 3.776-11.897 3.793-12.302.008-.388-.66-.344-1.227-.388-.326-.018-1.155-.033-2.246-.033-2.448-.005-6.215.064-8.565.278"/></defs><clipPath id="h"><use xlink:href="#g" overflow="visible"/></clipPath><linearGradient id="i" gradientUnits="userSpaceOnUse" x1="160.917" y1="-6.868" x2="161.917" y2="-6.868" gradientTransform="matrix(0 30.754 -30.754 0 -56.132 -4910.8)"><stop offset="0" stop-color="#589620"/><stop offset=".515" stop-color="#589620"/><stop offset=".81" stop-color="#3D6E1A"/><stop offset=".92" stop-color="#3B6B19"/><stop offset="1" stop-color="#3D6E1A"/></linearGradient><path clip-path="url(#h)" fill="url(#i)" d="M134.89 34.942h40.4v56h-40.4z"/><defs><path id="j" d="M274.292 16.898c-2.17.218-6.094 2.402-6.094 3.032 0 .142.08.6.46.747.87.338 1.908 1.782 1.908 4.254 0 4.888-1.907 12.08-8.245 22.03-1.638 2.58-3.378 5.13-5.603 8.194 0 0-1.33 1.7-1.994-.594-.32-.983-.516-4.646-.944-8.38-.627-4.982-1.574-10.443-2.03-13.193 0 0-1.18-5.847-2.523-10.346-.755-2.698-1.558-4.754-2.212-5.16-.223-.136-.786-.397-1.34-.397-2.038 0-6.428.773-10.788 2.377-4.608 1.683-9.25 4.23-12.575 7.39-6.52 6.35-9.742 15.43-5.666 21.868 1.533 2.64 5.89 4.398 8.885 3.84 1.548-.29 2.546-1.16 2.944-1.51.372-.317 1.2-.993 1.44-1.42.145-.285-.212-.528-.36-.528-.664 0-5.27.845-8.383-2.516-2.658-2.884-2.634-6.102-2.67-8.074-.055-1.948.614-4.34 2.612-7.593 2.95-4.787 8.59-7.187 13.127-8.152 3.31-.695 5.25-.567 6.938-.567 1.62 0 3.666 3.71 4.835 9.203.42 1.897 1.425 6.295 1.983 10.922 1.04 8.448 1.388 17.98 1.42 19.23.04 1.93-.063 4.606-.008 5.132.05.522.81.645 1.092.276.725-1.04 1.804-2.326 2.766-3.586.986-1.287 1.895-2.58 3.03-4.144 1.073-1.467 2.04-3.236 3.163-4.823 4.2-5.973 8.512-12.514 11.133-17.437 1.68-3.11 3.163-6.136 4.25-8.977 1.208-3.17 1.872-5.963 1.962-6.706.355-2.09.152-3.167-.24-3.755-.357-.544-.973-.665-1.613-.665-.22.003-.445.018-.66.03"/></defs><clipPath id="k"><use xlink:href="#j" overflow="visible"/></clipPath><linearGradient id="l" gradientUnits="userSpaceOnUse" x1="160.917" y1="-6.868" x2="161.917" y2="-6.868" gradientTransform="matrix(0 30.753 -30.753 0 33.63 -4910.68)"><stop offset="0" stop-color="#589620"/><stop offset=".515" stop-color="#589620"/><stop offset=".81" stop-color="#3D6E1A"/><stop offset=".92" stop-color="#3B6B19"/><stop offset="1" stop-color="#3D6E1A"/></linearGradient><path clip-path="url(#k)" fill="url(#l)" d="M212.568 16.87h64.594v50.46h-64.594z"/><defs><path id="m" d="M297.933 35.35c-.446.098-1.364.482-1.967.733-2.303.84-4.174 1.828-5.047 2.463-.33.23-.337.554-.337.735-.02.313.21.62.39.674.705.26.928-.533 2.872-.833 1.055-.166 1.46.067 1.753.513.536.805.368 2.318.368 3.75 0 2.152-.584 5.3-1.254 8.567-1.45 6.877-3.428 14.187-3.428 14.83 0 .356.283.495.795.495.352 0 .784.217 2.818-.14 1.28-.228 1.413-1.415 1.685-2.485.162-.664 1.02-4.924 1.957-8.953.81-3.446 1.767-6.748 1.977-7.207.372-.985 1.372-2.975 2.932-4.623 1.44-1.586 3.577-2.896 4.58-3.323 1.042-.437 2.56-.49 3.25-.19.673.298 1.745 1.144 1.958.833.674-1.09 1.47-3.35 1.695-4.4.12-.527.107-.993-.71-1.332-.772-.307-1.92-.532-3.52-.052-1.792.56-2.708 1.52-4.855 3.602-.875.842-1.907 2.066-3.324 3.212-.205.18-.723.01-.723-.282-.015-.32-.118-4.366-.164-4.925-.027-.278-.286-1.142-.716-1.475-.262-.2-.383-.45-1.125-.45-.398 0-.98.074-1.862.264"/></defs><clipPath id="n"><use xlink:href="#m" overflow="visible"/></clipPath><linearGradient id="o" gradientUnits="userSpaceOnUse" x1="160.917" y1="-6.868" x2="161.917" y2="-6.868" gradientTransform="matrix(0 30.753 -30.753 0 91.584 -4910.77)"><stop offset="0" stop-color="#589620"/><stop offset=".515" stop-color="#589620"/><stop offset=".81" stop-color="#3D6E1A"/><stop offset=".92" stop-color="#3B6B19"/><stop offset="1" stop-color="#3D6E1A"/></linearGradient><path clip-path="url(#n)" fill="url(#o)" d="M290.565 34.922h24.487v32.57h-24.487z"/><defs><path id="p" d="M27.353 62.657c-.68-.27-.897-.618-.437-1.103 4.97-5.17 6.456-10.416 7.96-17.967.252-1.372.83-3.826.83-3.826.92-4.75 3.033-15.153 3.207-16.37.076-.526.414-.763 1.396-.763 6.908 0 12.342 2.196 12.342 7.41 0 5.615-6.252 9.082-12.45 9.824-2.026.245-4.533 2.624-3.41 2.624.654.024 1.768.168 3.352.168 6.898 0 14.324 3.067 14.027 9.2-.3 6.105-3.21 10.42-11 11.43-1.3.15-2.813.17-4.398.17h-1.41c-3.374 0-8.59-.29-10.01-.795M55.583 0c-1.433.01-2.81.23-3.93.527-2.275.59-5.94 2.537-9.215 5.947-1.73 1.818-3.698 4.473-4.716 6.936-1.274 3.16-1.855 4.753-2.456 5.107-.628.34-1.04.334-1.545.334C12.697 18.853 0 32.46.1 42.226c.07 7.145 4.36 10.132 6.393 10.658 4.552 1.14 7.888-1.08 8.94-2.357 0 0 .416-.32.416-.555 0-.172-.55-.172-.616-.172-.33.1-3.65.812-7.107-1.36-1.964-1.24-3.36-3.544-3.746-5.31-.818-3.673.21-8.247.587-9.15.37-.787 2.02-3.7 3.48-5.104 4.61-4.39 12.997-6.353 23.33-6.353 2.393 0 2.482.208 2.482 1.064 0 1.37-1.132 6.038-2.312 12.216-.955 4.62-2.097 10.58-3.302 15.468-.82 3.356-2.03 6.5-3.225 8.748-1.208 2.312-2.422 3.715-3.29 4.444-.65.497-.864.62-1.195.897-.32.31-.616.822-.22.976l16.155.17c7.925 0 22.646-6.578 22.646-15.787 0-4.417-1.643-8.286-11.24-10.072-1.14-.43-.025-1.19-.025-1.19 5.008-2.156 9.395-5.634 9.395-11.34 0-2.39-1.746-5.837-5.966-7.543-4.473-1.785-10.223-2.01-10.602-2.053-.274-.074-.653-.57-.68-1.036-.075-2.186 2.13-7.71 3.378-9.53 1.214-1.814 2.624-2.646 3.628-3.29 3.596-2.202 7.63-1.08 8.26-.91 1.258.3 3.207 1.832 3.904 3.22.508 1.02.74 1.943.942 2.68.12.397.147.91.236 1.018.433.665 2.855-1.448 3.283-2.23.663-1.237 1.32-2.01-.92-5.19C61.41.813 58.524.02 55.804 0h-.223z"/></defs><clipPath id="q"><use xlink:href="#p" overflow="visible"/></clipPath><linearGradient id="r" gradientUnits="userSpaceOnUse" x1="160.917" y1="-6.869" x2="161.917" y2="-6.869" gradientTransform="matrix(0 30.753 -30.753 0 -178.554 -4910.678)"><stop offset="0" stop-color="#589620"/><stop offset=".515" stop-color="#589620"/><stop offset=".81" stop-color="#3D6E1A"/><stop offset=".92" stop-color="#3B6B19"/><stop offset="1" stop-color="#3D6E1A"/></linearGradient><path clip-path="url(#q)" fill="url(#r)" d="M0 0h65.35v66.503H0z"/><defs><path id="s" d="M98.866 25.458c-.976 2.166-2.783 4.882-4.356 6.778-1.15 1.563-2.197 2.525-3.186 3.183-1.494 1.055-3.526 2.072-4.003 2.23-.458.2-.994.56-.994.927 0 .254.236.78.74.78 1.022 0 4.125.008 4.48.138.367.14.26 2.088.04 3.395-1.472 8.485-3.767 18.313-3.767 20.41 0 3.493 1.395 4.306 3.078 4.23 2.688-.126 4.428-1.57 7.34-3.33 1.603-1.01 2.86-2.043 3.164-2.646.125-.244-.137-.45-.245-.574-.2-.237-1.232.416-2.365.972-1.098.558-2.454.933-2.855.987-1.74.275-2.927-.783-2.553-3.89.857-7.615 1.802-10.75 3.346-18.568.104-.507.518-1.12.974-1.263.477-.155 5.1-.016 6.906-.016 1.55 0 2.328-3.468 2.013-3.96-.21-.27-2.453-.215-4.393-.162-1.29.037-2.447.073-2.78.01-.917-.17-1.425-.994-.875-3.158.508-2.117 1.502-5.74 1.644-6.347.054-.23 0-.687-.267-.764-.085-.032-.175-.05-.267-.05-.305 0-.62.196-.82.685"/></defs><clipPath id="t"><use xlink:href="#s" overflow="visible"/></clipPath><linearGradient id="u" gradientUnits="userSpaceOnUse" x1="160.922" y1="-6.87" x2="161.922" y2="-6.87" gradientTransform="matrix(0 30.742 -30.742 0 -114.581 -4909.019)"><stop offset="0" stop-color="#589620"/><stop offset=".515" stop-color="#589620"/><stop offset=".81" stop-color="#3D6E1A"/><stop offset=".92" stop-color="#3B6B19"/><stop offset="1" stop-color="#3D6E1A"/></linearGradient><path clip-path="url(#t)" fill="url(#u)" d="M86.326 24.774h20.612v42.83H86.326z"/><defs><path id="v" d="M121.588 25.03c-.94 2.165-2.788 4.896-4.318 6.787-1.277 1.552-2.318 2.508-3.29 3.16-1.52 1.08-3.58 2.07-4.04 2.26-.47.17-1 .557-1 .918 0 .232.243.782.747.782 1.024 0 4.146.023 4.503.13.35.154.264 2.08.027 3.403-1.483 8.46-3.765 18.312-3.765 20.415 0 3.486 1.79 3.746 3.468 3.674 2.662-.118 3.983-1.026 6.9-2.784 1.58-1.012 3.035-2.06 3.33-2.647.11-.254-.14-.45-.232-.564-.202-.27-1.26.418-2.412.972-1.06.534-2.443.923-2.844 1.008-1.817.244-3.052-.826-2.67-3.94.96-7.594 1.95-10.752 3.473-18.557.074-.484.526-1.086.99-1.255.478-.153 5.08-.014 6.93-.014 1.508 0 2.332-3.49 1.98-3.96-.21-.28-2.497-.22-4.45-.162-1.267.04-2.392.078-2.72.025-.914-.172-1.423-.975-.887-3.16.496-2.13 1.482-5.73 1.645-6.35.075-.224-.007-.705-.255-.794-.08-.023-.16-.035-.24-.035-.326-.004-.648.187-.87.685"/></defs><clipPath id="w"><use xlink:href="#v" overflow="visible"/></clipPath><linearGradient id="x" gradientUnits="userSpaceOnUse" x1="160.921" y1="-6.869" x2="161.921" y2="-6.869" gradientTransform="matrix(0 30.742 -30.742 0 -91.869 -4909.062)"><stop offset="0" stop-color="#589620"/><stop offset=".515" stop-color="#589620"/><stop offset=".81" stop-color="#3D6E1A"/><stop offset=".92" stop-color="#3B6B19"/><stop offset="1" stop-color="#3D6E1A"/></linearGradient><path clip-path="url(#w)" fill="url(#x)" d="M108.94 24.34h20.777v42.29H108.94z"/><defs><path id="y" d="M178.733 53.86c.357-3.054 2.872-12.53 6.19-14.61 1.514-1.125 5.442-1.186 7.756-.866 1.07.162 1.876 1.303 1.844 2.013-.184 1.017-.925 6.424-3.79 10.977-.994 1.574-2.303 4.26-4.177 6.347-2.227 2.53-3.44 4.064-5.144 4.532-.23.062-.44.092-.636.092-2.735 0-2.32-5.71-2.044-8.485m12.43-19.37c-.87 0-1.676.03-2.352.1-3.8.386-6.355 3.29-8.472 5.914-4.73 5.877-6.55 11.533-7.513 19.19-.603 4.424.986 7.32 3.333 7.43 2.623.12 4.503-1.272 7.682-4.077 3.177-2.883 5.2-6.44 7.14-8.654.562-.61.927.18.927.18-.383 4.563.033 9.158.643 10.432.58 1.33 1.504 1.96 3.177 1.576 1.612-.388 3.308-1.98 3.82-2.517.5-.635 1.24-1.47.58-1.674-.226-.06-.51-.044-.806-.026-.522.023-1.093.05-1.47-.323-.69-.537-.97-4.04-1.01-4.736-.016-.695.746-7.738 1.033-9.24.27-1.476 3.162-12.155 3.316-12.56.084-.257-.774-.48-1.355-.526-.827-.05-5.19-.485-8.63-.485l-.043-.002z"/></defs><clipPath id="z"><use xlink:href="#y" overflow="visible"/></clipPath><linearGradient id="A" gradientUnits="userSpaceOnUse" x1="160.917" y1="-6.868" x2="161.917" y2="-6.868" gradientTransform="matrix(0 30.754 -30.754 0 -24.476 -4910.8)"><stop offset="0" stop-color="#589620"/><stop offset=".515" stop-color="#589620"/><stop offset=".81" stop-color="#3D6E1A"/><stop offset=".92" stop-color="#3B6B19"/><stop offset="1" stop-color="#3D6E1A"/></linearGradient><path clip-path="url(#z)" fill="url(#A)" d="M172.222 34.49h29.055v32.754h-29.055z"/><defs><path id="B" d="M316.04 60.646c-.124-.61-.29-3.588.427-6.597 1.285-5.41 3.938-11.353 6.217-13.043 1.377-1.108 5.1-1.374 7.074-.676 1.02.334 1.44 1.125 1.346 1.865-.168 1.393-1.11 4.558-3.838 8.566-2.27 3.386-5.11 6.417-5.418 6.77-.56.683-2.754 3.147-3.652 3.79-.44.234-.805.34-1.102.34-.602 0-.936-.42-1.053-1.014M347 8.706s.16-.433.585-.862c.64-.643 1.836-1.568 3.137-2.356.86-.535 1.902-1.148 2.867-1.3 3.048-.468 5.796-.04 5.745 3.033-.094 2.13-2.602 4.188-5.182 4.188-2.57 0-7.255-1.28-7.152-2.702m12.61-7.61c-1.284.077-4.85.675-8.218 2.29-3.81 1.855-7.012 4.746-7.512 4.746-.52 0-7.09-3.202-12.71-4.97-2.657-.802-5.946-1.01-6.794-1.026-2.662-.015-4.31.32-6.887.95-4.147 1.084-8.864 3.748-10.1 6.815-2.11 5.106 2.208 10.043 7.54 11.082 4.613.898 8.496.365 10.21-.245.628-.237 1.64-.475 1.91-.68.503-.372.144-.627-.356-.67-.135-.02-.465 0-.947.02-1.082.045-2.928.09-4.98-.31-2.414-.483-5.11-1.63-7.213-3.643-3.246-3.138-3.084-7.74.85-9.83 5.04-2.578 14.12 1.136 17.334 2.326 1.94.736 6.11 2.313 7.525 3.157.96.524 1.19 1.148 1.004 1.618-.314.513-1.768 2.545-2.834 5.207-1.232 3.084-2.307 7.084-3.084 10.77-1.427 6.753-1.835 7.69-2.505 7.66-.71-.035-4.912.03-4.912.03-1.764 0-4.27 1.305-6.256 3.103-2.025 1.82-3.73 4.168-4.764 5.828C310.287 54.165 310 59.34 310 62.588c0 4.043 1.186 5.768 2.666 5.768 1.738 0 2.828-1.23 4.566-2.9 2.29-2.118 10.092-11.963 10.35-12.294.332-.246.932 0 .738 1.026-.59 2.98-.95 7.666-.95 8.646 0 1.306.452 5.376 2.497 5.752 1.277.222 2.006.092 2.727-.153 1.195-.46 2.2-1.293 2.37-1.5.397-.533.47-.81.397-1.434-.1-.646-.55-.74-1-.9-.556-.172-1.817-.426-1.767-2.812.07-3.84.9-8.033 1.957-12.46 1.312-5.684 4.36-21.618 5.752-26.717 1.287-4.85 3.025-8.842 3.312-9.076.512-.43.623-.454 4.71.106 2.696.373 5.66.12 8.702-1.186 2.053-.882 4.248-2.196 5.945-4.21 3.853-4.97-.263-7.154-3.048-7.154-.104-.005-.21 0-.31.005"/></defs><clipPath id="C"><use xlink:href="#B" overflow="visible"/></clipPath><linearGradient id="D" gradientUnits="userSpaceOnUse" x1="160.917" y1="-6.868" x2="161.917" y2="-6.868" gradientTransform="matrix(0 30.753 -30.753 0 124.815 -4910.709)"><stop offset="0" stop-color="#589620"/><stop offset=".515" stop-color="#589620"/><stop offset=".81" stop-color="#3D6E1A"/><stop offset=".92" stop-color="#3B6B19"/><stop offset="1" stop-color="#3D6E1A"/></linearGradient><path clip-path="url(#C)" fill="url(#D)" d="M305.28 1.085h61.544v67.72H305.28z"/><defs><path id="E" d="M135.08 45.278c-.302-.63.538-2.486 1.978-4.964 1.038-1.822 2.592-4.054 4.966-3.892 1.77.14 2.146 2.21 2.073 3.033-.18 2.055-.823 3.406-2.514 4.53-1.566 1.066-3.834 1.71-5.25 1.71-.64 0-1.106-.133-1.253-.417m5.176-10.41c-3.882 2.445-7.22 6.554-8.702 9.125-1.714 2.784-3.926 8.33-3.576 14.844.245 4.927 3.782 8.04 6.87 7.667 3.22-.367 6.4-3.275 7.81-5.225.532-.742.544-1.15.544-1.31-.09-.578-.28-.826-1.178.17-.902 1.028-2.51 2.517-4.757 2.407-2.334-.092-4.66-2.622-4.66-6.71 0-1.275.242-3.824.885-5.236.533-1.146 4.762-1.96 9.942-5.985 1.177-.91 5.65-4.958 5.65-7.486 0-2.6-.205-4.07-3.696-4.07-1.66 0-3.547.812-5.132 1.81"/></defs><clipPath id="F"><use xlink:href="#E" overflow="visible"/></clipPath><linearGradient id="G" gradientUnits="userSpaceOnUse" x1="160.917" y1="-6.868" x2="161.917" y2="-6.868" gradientTransform="matrix(0 30.753 -30.753 0 -72.869 -4910.786)"><stop offset="0" stop-color="#589620"/><stop offset=".515" stop-color="#589620"/><stop offset=".81" stop-color="#3D6E1A"/><stop offset=".92" stop-color="#3B6B19"/><stop offset="1" stop-color="#3D6E1A"/></linearGradient><path clip-path="url(#F)" fill="url(#G)" d="M127.628 33.06h21.456v33.818h-21.456z"/><defs><path id="H" d="M346.228 44.25c-.307-.61.44-2.332 1.883-4.83 1.077-1.787 3.015-4.14 5.366-3.966 1.77.143 2.096 2.072 2.02 2.915-.195 2.05-1.105 3.456-2.762 4.598-1.582 1.048-3.867 1.704-5.277 1.704-.635 0-1.092-.13-1.23-.422m5.368-10.43c-3.895 2.43-7.44 6.6-8.898 9.15-1.73 2.782-3.844 8.326-3.52 14.867.307 5.616 5.117 8.636 8.363 9.548 3.96 1.162 8.264 1.752 13.13 1.52 4.847-.27 9.274-1.627 12.56-3.15 3.286-1.477 8.964-5.03 11.25-8.693 2.274-3.65 3.804-8.12 1.65-10.805-2.12-2.584-5.812.675-5.97.91-.21.352.293.91.59 1.134.28.206 2.53 2.41 1.924 5.83-.63 3.434-2.004 5.21-6.52 7.78-4.513 2.582-8.71 2.903-10.657 3.14-2.004.245-9.63.924-16.646-2.4-2.1-1.025-4.937-3.54-4.937-7.646 0-1.305.242-3.843.908-5.248.505-1.125 4.58-2.14 9.733-6.165 1.223-.922 5.156-4.767 5.45-7.488.272-2.535.167-4.237-3.317-4.237-1.655-.002-3.513 1.02-5.09 1.954"/></defs><clipPath id="I"><use xlink:href="#H" overflow="visible"/></clipPath><linearGradient id="J" gradientUnits="userSpaceOnUse" x1="160.913" y1="-6.867" x2="161.913" y2="-6.867" gradientTransform="matrix(0 30.765 -30.765 0 152.286 -4912.506)"><stop offset="0" stop-color="#589620"/><stop offset=".515" stop-color="#589620"/><stop offset=".81" stop-color="#3D6E1A"/><stop offset=".92" stop-color="#3B6B19"/><stop offset="1" stop-color="#3D6E1A"/></linearGradient><path clip-path="url(#I)" fill="url(#J)" d="M338.853 31.863h49.432v37.273h-49.432z"/></svg>