<svg xmlns="http://www.w3.org/2000/svg" xmlns:xlink="http://www.w3.org/1999/xlink" width="49.616" height="88.269" viewBox="0 0 49.616 88.269"><defs><path id="a" d="M0 0h49.616v88.27H0z"/></defs><clipPath id="b"><use xlink:href="#a" overflow="visible"/></clipPath><path clip-path="url(#b)" fill="#156737" d="M44.556 0H5.06C2.277 0 0 2.277 0 5.06v78.15c0 2.78 2.277 5.06 5.06 5.06h39.496c2.783 0 5.06-2.278 5.06-5.06V5.06c0-2.783-2.277-5.06-5.06-5.06M25.04 2.866c.973 0 1.762.788 1.762 1.76 0 .973-.79 1.76-1.76 1.76-.974 0-1.762-.787-1.762-1.76 0-.972.788-1.76 1.76-1.76m0 82.76c-1.944 0-3.52-1.577-3.52-3.522s1.576-3.52 3.52-3.52c1.946 0 3.522 1.575 3.522 3.52s-1.576 3.522-3.52 3.522m20.482-10.773H4.092V9.598h41.433v65.255z"/></svg>