<svg xmlns="http://www.w3.org/2000/svg" width="15.783" height="15.05" viewBox="0 0 15.783 15.05"><path stroke="#000" stroke-width=".8" stroke-linecap="round" stroke-linejoin="round" stroke-miterlimit="10" d="M11.725 1.545C10.61.82 9.278.4 7.85.4 3.913.4.723 3.59.723 7.523c0 1.534.484 2.954 1.308 4.116M13.843 3.673c.716 1.11 1.13 2.433 1.13 3.852 0 3.935-3.19 7.125-7.124 7.125-1.286 0-2.492-.34-3.533-.936" fill="none"/><path stroke="#000" stroke-width=".789" stroke-linecap="round" stroke-linejoin="round" stroke-miterlimit="10" fill="none" d="M12.912 4.908l.465-1.954 2.012.48"/><path stroke="#000" stroke-width=".8" stroke-linecap="round" stroke-linejoin="round" stroke-miterlimit="10" fill="none" d="M2.802 10.315l-.368 2.035L.4 11.98"/><path d="M4.7 5.57l-1.18.29-.308-1.22 1.94-.578h1.015v6.808H4.7v-5.3zM7.47 9.972l.9-1.072c.51.465 1.013.734 1.612.734.695 0 1.13-.338 1.13-.936v-.02c0-.58-.492-.918-1.197-.918-.425 0-.812.117-1.13.252l-.86-.57.193-3.332h4.153v1.305H9.394l-.077 1.168c.27-.066.512-.115.89-.115 1.312 0 2.365.637 2.365 2.163v.02c0 1.43-1.013 2.34-2.568 2.34-1.083-.003-1.874-.39-2.53-1.018z"/></svg>