<svg xmlns="http://www.w3.org/2000/svg" xmlns:xlink="http://www.w3.org/1999/xlink" width="63.446" height="59.309" viewBox="0 0 63.446 59.309"><path fill="#438944" d="M9.227 0l-2.23 2.696h48.896L54.127 0z"/><defs><path id="a" d="M0 0h63.447v59.31H0z"/></defs><clipPath id="b"><use xlink:href="#a" overflow="visible"/></clipPath><path clip-path="url(#b)" fill="#438944" d="M57.753 6.508H4.58L.022 57.17c-.093.56.093 1.116.465 1.488.372.464.837.65 1.394.65h59.68c.56 0 1.024-.28 1.397-.65.37-.372.556-.93.463-1.488l-5.67-50.662zM47.62 15.246c-.094 7.344-1.487 21.103-15.897 21.103-14.502 0-15.804-13.853-16.082-21.196-.37-.465-.65-1.116-.65-1.766 0-1.395 1.208-2.603 2.603-2.603 1.394 0 2.603 1.208 2.603 2.603 0 .65-.28 1.208-.65 1.673.185 9.297 2.137 17.385 12.084 17.385 9.946 0 11.898-8.18 12.085-17.477-.372-.372-.56-.93-.56-1.58 0-1.395 1.21-2.603 2.605-2.603 1.394 0 2.603 1.208 2.603 2.603 0 .742-.278 1.393-.744 1.858"/></svg>