<svg xmlns="http://www.w3.org/2000/svg" xmlns:xlink="http://www.w3.org/1999/xlink" width="79.592" height="54.928" viewBox="0 0 79.592 54.928"><defs><path id="a" d="M0 0h79.592v54.928H0z"/></defs><clipPath id="b"><use xlink:href="#a" overflow="visible"/></clipPath><path clip-path="url(#b)" fill="#156737" d="M0 39.147c7.664 7.193 20.99 7.782 29.48-.942-4.836.942-8.49-4.01-2.36-6.72-5.424.588-8.607-2.36-9.905-4.955 1.298-1.18 2.712-1.886 5.542-2.122-6.013-1.18-8.37-4.245-8.96-7.783 1.65-.47 3.772-.825 4.833-.707-5.306-2.712-6.957-6.72-6.72-9.905 9.315 3.42 15.446 6.368 20.398 8.844 1.887 1.06 3.774 2.83 6.132 4.952C41.152 12.144 44.807 4.48 50.703.47c0 1.062-.354 1.652-1.062 2.595C51.41 1.297 53.534.235 55.774 0c-.118 1.768-2.713 2.594-4.245 3.183 1.298-.354 7.31-2.948 7.9-1.415.59 1.65-4.245 2.476-4.835 2.712-.707.236-1.297.472-2.004.708 7.427-.708 14.738 5.424 16.86 13.324.118.472.354 1.06.354 1.65 2.83 1.062 7.9 0 9.552-1.06-1.298 2.83-4.245 4.952-8.726 5.306 2.122.943 6.25 1.297 8.96.943-1.65 1.888-4.716 3.538-9.313 3.538C63.674 55.183 20.163 66.503 0 39.148"/></svg>