<svg xmlns="http://www.w3.org/2000/svg" xmlns:xlink="http://www.w3.org/1999/xlink" width="61.669" height="70.159" viewBox="0 0 61.669 70.159"><defs><path id="a" d="M0 0h61.67v70.16H0z"/></defs><clipPath id="b"><use xlink:href="#a" overflow="visible"/></clipPath><path clip-path="url(#b)" fill="#156737" d="M15.447 39.383v4.245H10.14v25.94H5.306v-25.94H0v-4.245h15.447zm-1.298-26.06h.235L18.04 0h5.66l-6.603 19.456v13.796h-5.66v-13.09L4.834 0h5.542l3.773 13.324zM25.586 69.57v-2.595c-.825 1.06-1.65 1.77-2.476 2.122-.824.472-1.768.708-2.593.708-1.06 0-1.887-.236-2.358-.826-.59-.944-.827-1.77-.827-3.065V47.283h4.48v16.98c0 .59.237 1.06.237 1.297.236.236.59.236 1.06.236.237 0 .59 0 1.298-.473.354-.235.825-.59 1.18-1.06v-16.98h4.48v22.285h-4.48zm.472-59.9c1.532-1.063 3.182-1.652 5.54-1.652 2.123 0 3.773.59 5.07 1.887 1.297 1.06 1.888 2.83 1.888 4.48V27.12c0 2.122-.59 3.773-1.888 4.834-1.297 1.298-3.184 2.005-5.306 2.005-2.358 0-4.01-.708-5.306-2.006-1.297-1.18-1.887-2.947-1.887-4.834V14.385c.002-1.886.592-3.42 1.89-4.716m6.838 19.337c.354-.354.59-.826.59-1.415V14.15c0-.59-.236-1.062-.59-1.298-.473-.353-.944-.59-1.533-.59-.59 0-1.297.237-1.533.59-.354.236-.59.708-.59 1.297V27.59c0 .59.236 1.06.472 1.415.354.47 1.06.707 1.65.707.59 0 1.062-.236 1.534-.707M45.16 48.345c.59 1.06 1.063 2.357 1.063 4.244V64.85c0 1.77-.473 2.83-1.062 3.656-.59.825-1.65 1.297-2.947 1.297-.824 0-1.77-.236-2.357-.472-.59-.354-1.297-.825-1.888-1.415v1.65h-4.48V39.383h4.48v9.55c.59-.588 1.298-1.06 1.888-1.414.59-.473 1.297-.473 2.122-.473 1.296 0 2.357.472 3.183 1.298M39.03 66.15c.353 0 .59.235 1.06.235.59 0 .826-.235 1.3-.59.116-.235.116-.707.116-1.532V52.825c0-.824 0-1.297-.354-1.768-.236-.354-.708-.59-1.297-.59-.473 0-.59.235-1.062.235-.235.236-.59.354-.826.59v14.03c.355.474.592.593 1.062.828m8.725-57.543v18.985c0 .59 0 1.06.118 1.18.236.235.707.47 1.062.47.472 0 .942-.235 1.532-.59.473-.235 1.062-.707 1.533-1.296V8.606h5.07v24.646H52V30.54c-.942 1.06-2.005 1.65-3.065 2.358-.825.354-1.888.825-2.712.825-1.298 0-2.122-.47-2.713-1.297-.472-.59-.942-1.65-.942-3.184V8.607h5.187zm13.914 50.35h-8.49v4.245c0 1.062 0 1.887.472 2.358.234.354.825.59 1.533.59.59 0 1.18-.235 1.415-.354.47-.473.47-1.297.47-2.595v-1.06h4.6v1.062c0 2.358-.59 4.01-1.65 5.307-1.062 1.06-2.712 1.65-5.07 1.65-1.887 0-3.42-.59-4.717-1.888-1.062-1.297-1.65-2.948-1.65-5.07V53.18c0-1.888.59-3.303 1.886-4.6 1.297-1.298 2.947-1.887 4.833-1.887 2.123 0 3.656.59 4.718 1.65 1.062 1.298 1.65 2.713 1.65 4.835v5.78zm-8.49-5.778v2.12h3.89v-2.12c0-.826-.235-1.652-.47-2.123-.236-.118-.826-.354-1.415-.354-.708 0-1.3.236-1.533.354-.472.47-.472 1.297-.472 2.122"/></svg>